<?xml version="1.0" encoding="UTF-8" standalone="no"?>
<!-- Created with Inkscape (http://www.inkscape.org/) -->

<svg
   width="59.101624mm"
   height="30.536495mm"
   viewBox="0 0 59.101624 30.536495"
   version="1.1"
   id="svg1"
   xml:space="preserve"
   xmlns="http://www.w3.org/2000/svg"
   xmlns:svg="http://www.w3.org/2000/svg"><defs
     id="defs1" /><g
     id="layer1"
     transform="translate(-238.83785,-137.77854)"><g
       id="g10"><path
         id="path1"
         style="font-variation-settings:'opsz' 32, 'wght' 900;fill:#aa87de;fill-opacity:1;stroke:none;stroke-width:0;stroke-linecap:square;stroke-linejoin:round;stroke-dasharray:none;stroke-opacity:1;paint-order:stroke fill markers"
         d="m 245.16177,137.80228 c -2.00527,0.0379 -4.12597,0.48913 -6.32393,1.47878 3.50677,0.30005 7.08356,1.44666 10.45146,3.15765 -1.56505,0.17085 -3.18972,0.52574 -4.86692,1.09604 7.82274,1.63881 13.81531,15.29736 11.8911,24.78029 4.96652,-2.24282 8.15186,-6.60428 10.77111,-11.39305 -1.28415,-3.31016 -2.33991,-6.80455 -3.62519,-9.96868 -0.71351,1.1706 -1.38594,2.45327 -2.01806,3.84262 -1.07895,-5.50172 -7.5864,-13.14931 -16.27738,-12.99365 z m 32.96144,0.0459 c -3.29286,-0.0842 -6.24064,0.80205 -8.84874,2.62481 1.75382,1.50023 3.11338,3.746 3.69685,4.87781 1.81758,-3.18252 3.8571,-5.86818 6.58274,-7.40692 -0.4845,-0.0518 -0.96053,-0.0837 -1.43093,-0.0955 z" /><g
         id="path2"
         style="opacity:1;stroke-width:0;stroke-dasharray:none"
         transform="matrix(4.2082378,0,0,4.2082378,-199.68162,-1014.5473)"><path
           style="font-variation-settings:'opsz' 32, 'wght' 900;baseline-shift:baseline;display:inline;overflow:visible;fill:#de87aa;stroke-width:0;stroke-linecap:square;stroke-linejoin:round;stroke-dasharray:none;paint-order:stroke fill markers;enable-background:accumulate;stop-color:#000000;stop-opacity:1"
           d="m 116.58678,273.82701 c -2.01434,-0.0448 -4.33684,1.8154 -4.38002,3.56404 -0.0688,-0.41808 -0.55558,-0.96893 -1.21602,-0.1074 h -0.002 c -0.0399,-0.19014 0.0276,-0.42071 0.15813,-0.60616 -0.30635,-0.8947 0.50749,-1.22878 0.95602,-0.88784 -0.80419,-1.413 -1.8065,-2.10801 -3.47214,-1.92494 2.36374,0.73537 1.96106,6.37582 4.887,7.1896 -0.12286,-2.67962 1.60616,-6.61362 4.73153,-6.32402 -0.63712,-0.33557 -1.26132,-0.558 -1.87068,-0.67593 0.21363,-0.0832 0.43122,-0.15337 0.65164,-0.20826 -0.14705,-0.0166 -0.29728,-0.0165 -0.44346,-0.0191 z"
           id="path4" /></g><circle
         style="fill:#de87aa;fill-opacity:1;stroke:#ffffff;stroke-width:0;stroke-linecap:square;stroke-linejoin:round;paint-order:stroke fill markers"
         id="circle2"
         cx="298.49347"
         cy="74.116051"
         r="0.76648986"
         transform="rotate(14.728077)" /><path
         id="path3"
         style="font-variation-settings:'opsz' 32, 'wght' 900;fill:#aa87de;fill-opacity:1;stroke:none;stroke-width:0;stroke-linecap:square;stroke-linejoin:round;stroke-dasharray:none;stroke-opacity:1;paint-order:stroke fill markers"
         d="m 245.16177,137.80228 c -2.00527,0.0379 -4.12597,0.48913 -6.32393,1.47878 3.50677,0.30005 7.08356,1.44666 10.45146,3.15765 -1.56505,0.17085 -3.18972,0.52574 -4.86692,1.09604 7.82274,1.63881 13.81531,15.29736 11.8911,24.78029 4.96652,-2.24282 8.15186,-6.60428 10.77111,-11.39305 -1.28415,-3.31016 -2.33991,-6.80455 -3.62519,-9.96868 -0.71351,1.1706 -1.38594,2.45327 -2.01806,3.84262 -1.07895,-5.50172 -7.5864,-13.14931 -16.27738,-12.99365 z m 32.96144,0.0459 c -3.29286,-0.0842 -6.24064,0.80205 -8.84874,2.62481 1.75382,1.50023 3.11338,3.746 3.69685,4.87781 1.81758,-3.18252 3.8571,-5.86818 6.58274,-7.40692 -0.4845,-0.0518 -0.96053,-0.0837 -1.43093,-0.0955 z" /><path
         style="font-variation-settings:'opsz' 32, 'wght' 900;baseline-shift:baseline;display:inline;overflow:visible;opacity:1;fill:#de87aa;stroke-width:0;stroke-linecap:square;stroke-linejoin:round;stroke-dasharray:none;paint-order:stroke fill markers;enable-background:accumulate;stop-color:#000000;stop-opacity:1"
         d="m 116.58678,273.82701 c -2.01434,-0.0448 -4.33684,1.8154 -4.38002,3.56404 -0.0688,-0.41808 -0.55558,-0.96893 -1.21602,-0.1074 h -0.002 c -0.0399,-0.19014 0.0276,-0.42071 0.15813,-0.60616 -0.30635,-0.8947 0.50749,-1.22878 0.95602,-0.88784 -0.80419,-1.413 -1.8065,-2.10801 -3.47214,-1.92494 2.36374,0.73537 1.96106,6.37582 4.887,7.1896 -0.12286,-2.67962 1.60616,-6.61362 4.73153,-6.32402 -0.63712,-0.33557 -1.26132,-0.558 -1.87068,-0.67593 0.21363,-0.0832 0.43122,-0.15337 0.65164,-0.20826 -0.14705,-0.0166 -0.29728,-0.0165 -0.44346,-0.0191 z"
         id="path5"
         transform="matrix(4.2082379,0,0,4.2082379,-199.68162,-1014.5473)" /></g></g></svg>
